<?xml version="1.0" standalone="no"?>
<!DOCTYPE svg PUBLIC "-//W3C//DTD SVG 20010904//EN"
 "http://www.w3.org/TR/2001/REC-SVG-20010904/DTD/svg10.dtd">
<svg version="1.0" xmlns="http://www.w3.org/2000/svg"
 width="1500.000000pt" height="800.000000pt" viewBox="0 0 1500.000000 800.000000"
 preserveAspectRatio="xMidYMid meet">
<metadata>
Created by potrace 1.16, written by Peter Selinger 2001-2019
</metadata>
<g transform="translate(0.000000,800.000000) scale(0.100000,-0.100000)"
fill="#000000" stroke="none">
<path d="M7060 7825 c0 -24 -5 -35 -15 -35 -8 0 -15 -9 -15 -20 0 -13 -7 -20
-20 -20 -17 0 -20 -7 -20 -40 0 -33 -3 -40 -20 -40 -16 0 -20 -7 -20 -35 0
-28 -4 -35 -20 -35 -17 0 -20 -7 -20 -40 0 -33 -3 -40 -20 -40 -13 0 -20 -7
-20 -20 0 -11 -7 -20 -15 -20 -10 0 -15 -11 -15 -35 0 -28 -4 -35 -20 -35 -17
0 -20 -7 -20 -40 0 -33 -3 -40 -20 -40 -13 0 -20 -7 -20 -20 0 -13 -7 -20 -20
-20 -16 0 -20 -7 -20 -35 0 -24 -5 -35 -15 -35 -12 0 -15 -15 -15 -75 0 -60 3
-75 15 -75 11 0 15 -11 15 -40 0 -33 3 -40 20 -40 16 0 20 -7 20 -35 0 -28 4
-35 20 -35 13 0 20 -7 20 -20 0 -13 7 -20 20 -20 17 0 20 -7 20 -40 0 -29 4
-40 15 -40 10 0 15 -11 15 -35 0 -28 4 -35 20 -35 17 0 20 -7 20 -40 0 -33 3
-40 20 -40 13 0 20 -7 20 -20 0 -13 7 -20 20 -20 16 0 20 -7 20 -35 0 -28 4
-35 20 -35 17 0 20 -7 20 -40 0 -29 4 -40 15 -40 8 0 15 -9 15 -20 0 -17 7
-20 40 -20 29 0 40 -4 40 -15 0 -13 21 -15 130 -15 l130 0 0 -415 0 -415 -415
0 c-362 0 -415 2 -415 15 0 8 -9 15 -20 15 -13 0 -20 7 -20 20 0 11 -7 20 -15
20 -8 0 -15 9 -15 20 0 17 -7 20 -40 20 -33 0 -40 3 -40 20 0 17 -7 20 -40 20
-29 0 -40 4 -40 15 0 8 -7 15 -15 15 -8 0 -15 9 -15 20 0 13 -7 20 -20 20 -13
0 -20 7 -20 20 0 17 -7 20 -40 20 -33 0 -40 3 -40 20 0 11 -7 20 -15 20 -8 0
-15 9 -15 20 0 17 -7 20 -40 20 -29 0 -40 4 -40 15 0 8 -9 15 -20 15 -13 0
-20 7 -20 20 0 16 -7 20 -35 20 -28 0 -35 4 -35 20 0 13 -7 20 -20 20 -13 0
-20 7 -20 20 0 13 -7 20 -20 20 -11 0 -20 7 -20 15 0 10 -11 15 -35 15 -28 0
-35 4 -35 20 0 13 -7 20 -20 20 -13 0 -20 7 -20 20 0 17 -7 20 -40 20 -33 0
-40 3 -40 20 0 13 -7 20 -20 20 -13 0 -20 7 -20 20 0 16 -7 20 -35 20 -24 0
-35 5 -35 15 0 8 -9 15 -20 15 -20 0 -20 7 -20 495 l0 495 -35 0 c-24 0 -35 5
-35 15 0 8 -9 15 -20 15 -17 0 -20 7 -20 40 0 33 -3 40 -20 40 -13 0 -20 7
-20 20 0 13 -7 20 -20 20 -13 0 -20 7 -20 20 0 16 -7 20 -35 20 -24 0 -35 5
-35 15 0 8 -9 15 -20 15 -13 0 -20 7 -20 20 0 17 -7 20 -40 20 -33 0 -40 3
-40 20 0 16 -7 20 -35 20 -28 0 -35 4 -35 20 0 13 -7 20 -20 20 -11 0 -20 7
-20 15 0 11 -11 15 -40 15 -33 0 -40 3 -40 20 0 16 -7 20 -35 20 -28 0 -35 4
-35 20 0 17 -7 20 -40 20 -33 0 -40 3 -40 20 0 11 -7 20 -15 20 -8 0 -15 9
-15 20 0 17 -7 20 -40 20 -33 0 -40 -3 -40 -20 0 -17 -7 -20 -40 -20 -33 0
-40 -3 -40 -20 0 -16 -7 -20 -35 -20 -28 0 -35 -4 -35 -20 0 -17 -7 -20 -40
-20 -33 0 -40 -3 -40 -20 0 -13 -7 -20 -20 -20 -11 0 -20 -7 -20 -15 0 -10
-11 -15 -35 -15 -28 0 -35 -4 -35 -20 0 -17 -7 -20 -40 -20 -33 0 -40 -3 -40
-20 0 -11 -7 -20 -15 -20 -8 0 -15 -9 -15 -20 0 -17 -7 -20 -40 -20 -29 0 -40
-4 -40 -15 0 -11 -11 -15 -40 -15 -33 0 -40 -3 -40 -20 0 -16 -7 -20 -35 -20
-28 0 -35 -4 -35 -20 0 -13 -7 -20 -20 -20 -13 0 -20 -7 -20 -20 0 -16 -7 -20
-35 -20 l-35 0 0 -490 c0 -429 2 -490 15 -490 8 0 15 -9 15 -20 0 -17 7 -20
40 -20 33 0 40 -3 40 -20 0 -16 7 -20 35 -20 24 0 35 -5 35 -15 0 -8 9 -15 20
-15 13 0 20 -7 20 -20 0 -17 7 -20 40 -20 33 0 40 -3 40 -20 0 -16 7 -20 35
-20 28 0 35 -4 35 -20 0 -17 7 -20 40 -20 33 0 40 -3 40 -20 0 -13 7 -20 20
-20 11 0 20 -7 20 -15 0 -10 11 -15 35 -15 28 0 35 -4 35 -20 0 -17 7 -20 40
-20 33 0 40 -3 40 -20 0 -13 7 -20 20 -20 13 0 20 -7 20 -20 0 -16 7 -20 35
-20 24 0 35 -5 35 -15 0 -12 13 -15 60 -15 47 0 60 3 60 15 0 10 11 15 35 15
28 0 35 4 35 20 0 13 7 20 20 20 13 0 20 7 20 20 0 16 7 20 35 20 28 0 35 4
35 20 0 17 7 20 40 20 29 0 40 4 40 15 0 11 11 15 40 15 33 0 40 3 40 20 0 11
7 20 15 20 8 0 15 9 15 20 0 17 7 20 40 20 33 0 40 3 40 20 0 16 7 20 35 20
28 0 35 4 35 20 0 18 7 20 60 20 53 0 60 -2 60 -20 0 -13 7 -20 20 -20 13 0
20 -7 20 -20 0 -16 7 -20 35 -20 28 0 35 -4 35 -20 0 -13 7 -20 20 -20 13 0
20 -7 20 -20 0 -16 7 -20 35 -20 24 0 35 -5 35 -15 0 -8 9 -15 20 -15 13 0 20
-7 20 -20 0 -17 7 -20 40 -20 33 0 40 -3 40 -20 0 -13 7 -20 20 -20 13 0 20
-7 20 -20 0 -16 7 -20 35 -20 24 0 35 -5 35 -15 0 -8 9 -15 20 -15 13 0 20 -7
20 -20 0 -13 7 -20 20 -20 13 0 20 -7 20 -20 0 -16 7 -20 35 -20 28 0 35 -4
35 -20 0 -13 7 -20 20 -20 13 0 20 -7 20 -20 0 -17 7 -20 40 -20 29 0 40 -4
40 -15 0 -8 7 -15 15 -15 8 0 15 -9 15 -20 0 -13 7 -20 20 -20 13 0 20 -7 20
-20 0 -17 7 -20 40 -20 33 0 40 -3 40 -20 0 -11 7 -20 15 -20 8 0 15 -7 15
-15 0 -11 11 -15 40 -15 33 0 40 -3 40 -20 0 -13 7 -20 20 -20 18 0 20 -7 20
-75 0 -68 -2 -75 -20 -75 -17 0 -20 -7 -20 -40 0 -33 -3 -40 -20 -40 -13 0
-20 -7 -20 -20 0 -13 -7 -20 -20 -20 -16 0 -20 -7 -20 -35 0 -24 -5 -35 -15
-35 -11 0 -15 -11 -15 -40 0 -33 -3 -40 -20 -40 -13 0 -20 -7 -20 -20 0 -13
-7 -20 -20 -20 -16 0 -20 -7 -20 -35 0 -28 -4 -35 -20 -35 -17 0 -20 -7 -20
-40 0 -29 -4 -40 -15 -40 -10 0 -15 -11 -15 -35 0 -28 -4 -35 -20 -35 -13 0
-20 -7 -20 -20 0 -13 -7 -20 -20 -20 -17 0 -20 -7 -20 -40 0 -33 -3 -40 -20
-40 -16 0 -20 -7 -20 -35 0 -28 -4 -35 -20 -35 -17 0 -20 -7 -20 -40 0 -29 -4
-40 -15 -40 -8 0 -15 -9 -15 -20 0 -13 -7 -20 -20 -20 -16 0 -20 -7 -20 -35 0
-28 -4 -35 -20 -35 -17 0 -20 -7 -20 -40 0 -33 -3 -40 -20 -40 -11 0 -20 -7
-20 -15 0 -8 -7 -15 -15 -15 -11 0 -15 -11 -15 -40 0 -33 -3 -40 -20 -40 -17
0 -20 -7 -20 -40 0 -33 -3 -40 -20 -40 -11 0 -20 -7 -20 -15 0 -8 -9 -15 -20
-15 -13 0 -20 -7 -20 -20 0 -20 -7 -20 -450 -20 l-450 0 0 190 c0 183 -1 190
-20 190 -11 0 -20 7 -20 15 0 8 -9 15 -20 15 -13 0 -20 7 -20 20 0 13 -7 20
-20 20 -13 0 -20 7 -20 20 0 16 -7 20 -35 20 -28 0 -35 4 -35 20 0 17 -7 20
-40 20 -33 0 -40 3 -40 20 0 17 -7 20 -40 20 -29 0 -40 4 -40 15 0 8 -7 15
-15 15 -8 0 -15 9 -15 20 0 17 -7 20 -40 20 -33 0 -40 3 -40 20 0 16 -7 20
-35 20 -28 0 -35 4 -35 20 0 13 -7 20 -20 20 -11 0 -20 7 -20 15 0 11 -11 15
-40 15 -33 0 -40 3 -40 20 0 16 -7 20 -35 20 -28 0 -35 4 -35 20 0 13 -7 20
-20 20 -13 0 -20 -7 -20 -20 0 -17 -7 -20 -40 -20 -33 0 -40 -3 -40 -20 0 -16
-7 -20 -35 -20 -24 0 -35 -5 -35 -15 0 -11 -11 -15 -40 -15 -33 0 -40 -3 -40
-20 0 -16 -7 -20 -35 -20 -28 0 -35 -4 -35 -20 0 -17 -7 -20 -40 -20 -33 0
-40 -3 -40 -20 0 -13 -7 -20 -20 -20 -11 0 -20 -7 -20 -15 0 -10 -11 -15 -35
-15 -28 0 -35 -4 -35 -20 0 -17 -7 -20 -40 -20 -33 0 -40 -3 -40 -20 0 -16 -7
-20 -35 -20 -28 0 -35 -4 -35 -20 0 -13 -7 -20 -20 -20 -13 0 -20 -7 -20 -20
0 -13 -7 -20 -20 -20 -20 0 -20 -7 -20 -280 0 -273 0 -280 -20 -280 -19 0 -20
-7 -20 -135 0 -128 1 -135 20 -135 11 0 20 -7 20 -15 0 -8 9 -15 20 -15 13 0
20 -7 20 -20 0 -13 7 -20 20 -20 13 0 20 -7 20 -20 0 -16 7 -20 35 -20 28 0
35 -4 35 -20 0 -17 7 -20 40 -20 33 0 40 -3 40 -20 0 -13 7 -20 20 -20 11 0
20 -7 20 -15 0 -10 11 -15 35 -15 28 0 35 -4 35 -20 0 -17 7 -20 40 -20 33 0
40 -3 40 -20 0 -11 7 -20 15 -20 8 0 15 -9 15 -20 0 -17 7 -20 40 -20 29 0 40
-4 40 -15 0 -11 11 -15 40 -15 33 0 40 -3 40 -20 0 -11 7 -20 15 -20 8 0 15
-9 15 -20 0 -18 7 -20 75 -20 68 0 75 2 75 20 0 13 7 20 20 20 13 0 20 7 20
20 0 17 7 20 40 20 29 0 40 4 40 15 0 10 11 15 35 15 28 0 35 4 35 20 0 17 7
20 40 20 33 0 40 3 40 20 0 13 7 20 20 20 13 0 20 7 20 20 0 16 7 20 35 20 24
0 35 5 35 15 0 11 11 15 40 15 33 0 40 3 40 20 0 16 7 20 35 20 28 0 35 4 35
20 0 13 7 20 20 20 13 0 20 7 20 20 0 17 7 20 40 20 33 0 40 3 40 20 0 13 7
20 20 20 19 0 20 7 20 150 l0 150 430 0 430 0 0 -40 c0 -33 3 -40 20 -40 13 0
20 -7 20 -20 0 -13 7 -20 20 -20 16 0 20 -7 20 -35 0 -28 4 -35 20 -35 17 0
20 -7 20 -40 0 -33 3 -40 20 -40 11 0 20 -7 20 -15 0 -8 7 -15 15 -15 11 0 15
-11 15 -40 0 -33 3 -40 20 -40 17 0 20 -7 20 -40 0 -33 3 -40 20 -40 16 0 20
-7 20 -35 0 -28 4 -35 20 -35 13 0 20 -7 20 -20 0 -11 7 -20 15 -20 10 0 15
-11 15 -35 0 -28 4 -35 20 -35 17 0 20 -7 20 -40 0 -33 3 -40 20 -40 13 0 20
-7 20 -20 0 -13 7 -20 20 -20 16 0 20 -7 20 -35 0 -28 4 -35 20 -35 17 0 20
-7 20 -40 0 -29 4 -40 15 -40 11 0 15 -11 15 -40 0 -33 3 -40 20 -40 11 0 20
-7 20 -15 0 -8 9 -15 20 -15 17 0 20 -7 20 -40 0 -33 3 -40 20 -40 16 0 20 -7
20 -35 0 -24 5 -35 15 -35 11 0 15 -11 15 -40 0 -33 3 -40 20 -40 13 0 20 -7
20 -20 0 -13 7 -20 20 -20 16 0 20 -7 20 -35 0 -28 4 -35 20 -35 17 0 20 -7
20 -40 0 -33 3 -40 20 -40 16 0 20 -7 20 -35 0 -28 -4 -35 -20 -35 -13 0 -20
-7 -20 -20 0 -13 -7 -20 -20 -20 -13 0 -20 -7 -20 -20 0 -17 -7 -20 -40 -20
-33 0 -40 -3 -40 -20 0 -11 -7 -20 -15 -20 -8 0 -15 -9 -15 -20 0 -13 -7 -20
-20 -20 -11 0 -20 -7 -20 -15 0 -11 -11 -15 -40 -15 -33 0 -40 -3 -40 -20 0
-11 -7 -20 -15 -20 -8 0 -15 -9 -15 -20 0 -17 -7 -20 -40 -20 -33 0 -40 -3
-40 -20 0 -13 -7 -20 -20 -20 -11 0 -20 -7 -20 -15 0 -10 -11 -15 -35 -15 -28
0 -35 -4 -35 -20 0 -13 -7 -20 -20 -20 -13 0 -20 -7 -20 -20 0 -13 -7 -20 -20
-20 -13 0 -20 -7 -20 -20 0 -16 -7 -20 -35 -20 -28 0 -35 -4 -35 -20 0 -13 -7
-20 -20 -20 -11 0 -20 -7 -20 -15 0 -11 -11 -15 -40 -15 -33 0 -40 -3 -40 -20
0 -13 -7 -20 -20 -20 -13 0 -20 -7 -20 -20 0 -11 -7 -20 -15 -20 -8 0 -15 -9
-15 -20 0 -17 -7 -20 -40 -20 -29 0 -40 -4 -40 -15 0 -8 -9 -15 -20 -15 -13 0
-20 -7 -20 -20 0 -16 -7 -20 -35 -20 -28 0 -35 -4 -35 -20 0 -18 -7 -20 -60
-20 -53 0 -60 2 -60 20 0 16 -7 20 -35 20 -28 0 -35 4 -35 20 0 13 -7 20 -20
20 -11 0 -20 7 -20 15 0 10 -11 15 -35 15 -28 0 -35 4 -35 20 0 17 -7 20 -40
20 -33 0 -40 3 -40 20 0 17 -7 20 -40 20 -33 0 -40 3 -40 20 0 11 -7 20 -15
20 -8 0 -15 7 -15 15 0 11 -11 15 -40 15 -33 0 -40 3 -40 20 0 16 -7 20 -35
20 -28 0 -35 4 -35 20 0 17 -7 20 -40 20 -33 0 -40 3 -40 20 0 18 -7 20 -75
20 -68 0 -75 -2 -75 -20 0 -13 -7 -20 -20 -20 -13 0 -20 -7 -20 -20 0 -17 -7
-20 -40 -20 -33 0 -40 -3 -40 -20 0 -16 -7 -20 -35 -20 -24 0 -35 -5 -35 -15
0 -8 -9 -15 -20 -15 -13 0 -20 -7 -20 -20 0 -16 -7 -20 -35 -20 -28 0 -35 -4
-35 -20 0 -17 -7 -20 -40 -20 -33 0 -40 -3 -40 -20 0 -13 -7 -20 -20 -20 -11
0 -20 -7 -20 -15 0 -10 -11 -15 -35 -15 -28 0 -35 -4 -35 -20 0 -17 -7 -20
-40 -20 -33 0 -40 -3 -40 -20 0 -13 -7 -20 -20 -20 -13 0 -20 -7 -20 -20 0
-16 -7 -20 -35 -20 -28 0 -35 -4 -35 -20 0 -13 -7 -20 -20 -20 -20 0 -20 -7
-20 -470 0 -463 0 -470 20 -470 13 0 20 -7 20 -20 0 -13 7 -20 20 -20 13 0 20
-7 20 -20 0 -16 7 -20 35 -20 24 0 35 -5 35 -15 0 -8 9 -15 20 -15 13 0 20 -7
20 -20 0 -16 7 -20 35 -20 28 0 35 -4 35 -20 0 -17 7 -20 40 -20 33 0 40 -3
40 -20 0 -17 7 -20 40 -20 33 0 40 -3 40 -20 0 -16 7 -20 35 -20 24 0 35 -5
35 -15 0 -8 9 -15 20 -15 13 0 20 -7 20 -20 0 -16 7 -20 35 -20 28 0 35 -4 35
-20 0 -17 7 -20 40 -20 33 0 40 -3 40 -20 0 -17 7 -20 40 -20 29 0 40 -4 40
-15 0 -12 15 -15 75 -15 60 0 75 3 75 15 0 10 11 15 35 15 28 0 35 4 35 20 0
13 7 20 20 20 13 0 20 7 20 20 0 17 7 20 40 20 33 0 40 3 40 20 0 16 7 20 35
20 24 0 35 5 35 15 0 8 9 15 20 15 13 0 20 7 20 20 0 17 7 20 40 20 33 0 40 3
40 20 0 16 7 20 35 20 28 0 35 4 35 20 0 13 7 20 20 20 13 0 20 7 20 20 0 16
7 20 35 20 24 0 35 5 35 15 0 11 11 15 40 15 33 0 40 3 40 20 0 13 7 20 20 20
13 0 20 7 20 20 0 13 7 20 20 20 20 0 20 7 20 455 0 398 2 455 15 455 8 0 15
7 15 15 0 8 9 15 20 15 13 0 20 7 20 20 0 17 7 20 40 20 33 0 40 3 40 20 0 11
7 20 15 20 8 0 15 9 15 20 0 13 7 20 20 20 13 0 20 7 20 20 0 17 7 20 40 20
29 0 40 4 40 15 0 8 9 15 20 15 13 0 20 7 20 20 0 16 7 20 35 20 28 0 35 4 35
20 0 13 7 20 20 20 13 0 20 7 20 20 0 16 7 20 35 20 24 0 35 5 35 15 0 8 9 15
20 15 13 0 20 7 20 20 0 13 7 20 20 20 13 0 20 7 20 20 0 17 7 20 40 20 33 0
40 3 40 20 0 11 7 20 15 20 8 0 15 9 15 20 0 17 7 20 40 20 29 0 40 4 40 15 0
8 9 15 20 15 13 0 20 7 20 20 0 16 7 20 35 20 28 0 35 4 35 20 0 13 7 20 20
20 13 0 20 7 20 20 0 13 7 20 20 20 11 0 20 7 20 15 0 10 11 15 35 15 28 0 35
4 35 20 0 13 7 20 20 20 13 0 20 7 20 20 0 13 7 20 20 20 13 0 20 7 20 20 0
17 7 20 40 20 33 0 40 3 40 20 0 20 7 20 340 20 333 0 340 0 340 -20 0 -11 7
-20 15 -20 13 0 15 -49 15 -380 l0 -380 -55 0 c-48 0 -55 -2 -55 -20 0 -19 -7
-20 -150 -20 l-150 0 0 -35 c0 -28 -4 -35 -20 -35 -17 0 -20 -7 -20 -40 0 -33
-3 -40 -20 -40 -16 0 -20 -7 -20 -35 0 -28 -4 -35 -20 -35 -17 0 -20 -7 -20
-40 0 -29 -4 -40 -15 -40 -10 0 -15 -11 -15 -35 0 -28 -4 -35 -20 -35 -13 0
-20 -7 -20 -20 0 -13 -7 -20 -20 -20 -17 0 -20 -7 -20 -40 0 -33 -3 -40 -20
-40 -16 0 -20 -7 -20 -35 0 -24 -5 -35 -15 -35 -11 0 -15 -11 -15 -40 0 -33
-3 -40 -20 -40 -16 0 -20 -7 -20 -35 0 -28 -4 -35 -20 -35 -13 0 -20 -7 -20
-20 0 -13 7 -20 20 -20 17 0 20 -7 20 -40 0 -33 3 -40 20 -40 13 0 20 -7 20
-20 0 -11 7 -20 15 -20 10 0 15 -11 15 -35 0 -28 4 -35 20 -35 17 0 20 -7 20
-40 0 -33 3 -40 20 -40 11 0 20 -7 20 -15 0 -8 9 -15 20 -15 17 0 20 -7 20
-40 0 -29 4 -40 15 -40 11 0 15 -11 15 -40 0 -33 3 -40 20 -40 11 0 20 -7 20
-15 0 -8 9 -15 20 -15 17 0 20 -7 20 -40 0 -33 3 -40 20 -40 16 0 20 -7 20
-35 0 -28 4 -35 20 -35 13 0 20 -7 20 -20 0 -11 7 -20 15 -20 8 0 15 -9 15
-20 0 -19 7 -20 155 -20 148 0 155 1 155 20 0 20 7 20 280 20 273 0 280 0 280
20 0 13 7 20 20 20 16 0 20 7 20 35 0 28 4 35 20 35 17 0 20 7 20 40 0 33 3
40 20 40 16 0 20 7 20 35 0 24 5 35 15 35 11 0 15 11 15 40 0 33 3 40 20 40
16 0 20 7 20 35 0 28 4 35 20 35 13 0 20 7 20 20 0 13 7 20 20 20 17 0 20 7
20 40 0 29 4 40 15 40 10 0 15 11 15 35 0 28 4 35 20 35 17 0 20 7 20 40 0 33
3 40 20 40 18 0 20 7 20 55 0 48 -2 55 -20 55 -17 0 -20 7 -20 40 0 33 -3 40
-20 40 -11 0 -20 7 -20 15 0 8 -7 15 -15 15 -11 0 -15 11 -15 40 0 33 -3 40
-20 40 -17 0 -20 7 -20 40 0 33 -3 40 -20 40 -11 0 -20 7 -20 15 0 8 -9 15
-20 15 -17 0 -20 7 -20 40 0 29 -4 40 -15 40 -11 0 -15 11 -15 40 0 33 -3 40
-20 40 -11 0 -20 7 -20 15 0 8 -9 15 -20 15 -17 0 -20 7 -20 40 0 33 -3 40
-20 40 -16 0 -20 7 -20 35 0 28 -4 35 -20 35 -13 0 -20 7 -20 20 0 19 -7 20
-150 20 -143 0 -150 1 -150 20 0 13 -7 20 -20 20 -20 0 -20 7 -20 360 0 353 0
360 20 360 13 0 20 7 20 20 0 20 7 20 380 20 373 0 380 0 380 -20 0 -16 7 -20
35 -20 28 0 35 -4 35 -20 0 -13 7 -20 20 -20 13 0 20 -7 20 -20 0 -17 7 -20
40 -20 33 0 40 -3 40 -20 0 -13 7 -20 20 -20 11 0 20 -7 20 -15 0 -10 11 -15
35 -15 28 0 35 -4 35 -20 0 -13 7 -20 20 -20 13 0 20 -7 20 -20 0 -16 7 -20
35 -20 28 0 35 -4 35 -20 0 -13 7 -20 20 -20 11 0 20 -7 20 -15 0 -11 11 -15
40 -15 33 0 40 -3 40 -20 0 -13 7 -20 20 -20 13 0 20 -7 20 -20 0 -16 7 -20
35 -20 28 0 35 -4 35 -20 0 -13 7 -20 20 -20 13 0 20 -7 20 -20 0 -16 7 -20
35 -20 24 0 35 -5 35 -15 0 -8 9 -15 20 -15 13 0 20 -7 20 -20 0 -17 7 -20 40
-20 33 0 40 -3 40 -20 0 -13 7 -20 20 -20 13 0 20 -7 20 -20 0 -16 7 -20 35
-20 33 0 35 -2 35 -35 0 -28 4 -35 20 -35 20 0 20 -7 20 -455 l0 -455 35 0
c28 0 35 -4 35 -20 0 -13 7 -20 20 -20 13 0 20 -7 20 -20 0 -17 7 -20 40 -20
29 0 40 -4 40 -15 0 -10 11 -15 35 -15 28 0 35 -4 35 -20 0 -17 7 -20 40 -20
33 0 40 -3 40 -20 0 -13 7 -20 20 -20 13 0 20 -7 20 -20 0 -16 7 -20 35 -20
24 0 35 -5 35 -15 0 -11 11 -15 40 -15 33 0 40 -3 40 -20 0 -16 7 -20 35 -20
28 0 35 -4 35 -20 0 -13 7 -20 20 -20 13 0 20 -7 20 -20 0 -17 7 -20 40 -20
33 0 40 -3 40 -20 0 -16 7 -20 35 -20 24 0 35 -5 35 -15 0 -8 9 -15 20 -15 11
0 20 7 20 15 0 11 11 15 40 15 33 0 40 3 40 20 0 16 7 20 35 20 28 0 35 4 35
20 0 17 7 20 40 20 33 0 40 3 40 20 0 13 7 20 20 20 13 0 20 7 20 20 0 16 7
20 35 20 24 0 35 5 35 15 0 11 11 15 40 15 33 0 40 3 40 20 0 11 7 20 15 20 8
0 15 9 15 20 0 17 7 20 40 20 33 0 40 3 40 20 0 17 7 20 40 20 29 0 40 4 40
15 0 8 7 15 15 15 8 0 15 9 15 20 0 17 7 20 40 20 33 0 40 3 40 20 0 16 7 20
35 20 l35 0 0 490 c0 429 -2 490 -15 490 -8 0 -15 9 -15 20 0 17 -7 20 -40 20
-33 0 -40 3 -40 20 0 13 -7 20 -20 20 -13 0 -20 7 -20 20 0 16 -7 20 -35 20
-24 0 -35 5 -35 15 0 11 -11 15 -40 15 -33 0 -40 3 -40 20 0 16 -7 20 -35 20
-28 0 -35 4 -35 20 0 17 -7 20 -40 20 -33 0 -40 3 -40 20 0 13 -7 20 -20 20
-13 0 -20 7 -20 20 0 16 -7 20 -35 20 -24 0 -35 5 -35 15 0 11 -11 15 -40 15
-33 0 -40 3 -40 20 0 13 -7 20 -20 20 -13 0 -20 7 -20 20 0 16 -7 20 -35 20
-28 0 -35 4 -35 20 0 18 -7 20 -60 20 -53 0 -60 -2 -60 -20 0 -16 -7 -20 -35
-20 -28 0 -35 -4 -35 -20 0 -17 -7 -20 -40 -20 -33 0 -40 -3 -40 -20 0 -11 -7
-20 -15 -20 -8 0 -15 -7 -15 -15 0 -11 -11 -15 -40 -15 -33 0 -40 -3 -40 -20
0 -17 -7 -20 -40 -20 -33 0 -40 -3 -40 -20 0 -11 -7 -20 -15 -20 -8 0 -15 -9
-15 -20 0 -17 -7 -20 -40 -20 -33 0 -40 -3 -40 -20 0 -16 -7 -20 -35 -20 -24
0 -35 -5 -35 -15 0 -8 -9 -15 -20 -15 -13 0 -20 -7 -20 -20 0 -19 -7 -20 -95
-20 -88 0 -95 1 -95 20 0 13 -7 20 -20 20 -11 0 -20 7 -20 15 0 10 -11 15 -35
15 -28 0 -35 4 -35 20 0 17 -7 20 -40 20 -33 0 -40 3 -40 20 0 13 -7 20 -20
20 -13 0 -20 7 -20 20 0 13 -7 20 -20 20 -13 0 -20 7 -20 20 0 16 -7 20 -35
20 -24 0 -35 5 -35 15 0 8 -9 15 -20 15 -13 0 -20 7 -20 20 0 16 -7 20 -35 20
-28 0 -35 4 -35 20 0 13 -7 20 -20 20 -13 0 -20 7 -20 20 0 17 -7 20 -40 20
-29 0 -40 4 -40 15 0 8 -9 15 -20 15 -13 0 -20 7 -20 20 0 16 -7 20 -35 20
-28 0 -35 4 -35 20 0 13 -7 20 -20 20 -13 0 -20 7 -20 20 0 16 -7 20 -35 20
-28 0 -35 4 -35 20 0 13 -7 20 -20 20 -11 0 -20 7 -20 15 0 11 -11 15 -40 15
-33 0 -40 3 -40 20 0 13 -7 20 -20 20 -18 0 -20 7 -20 55 0 48 2 55 20 55 17
0 20 7 20 40 0 33 3 40 20 40 17 0 20 7 20 40 0 33 3 40 20 40 11 0 20 7 20
15 0 8 9 15 20 15 17 0 20 7 20 40 0 29 4 40 15 40 10 0 15 11 15 35 0 28 4
35 20 35 17 0 20 7 20 40 0 33 3 40 20 40 13 0 20 7 20 20 0 13 7 20 20 20 16
0 20 7 20 35 0 24 5 35 15 35 11 0 15 11 15 40 0 33 3 40 20 40 17 0 20 7 20
40 0 33 3 40 20 40 11 0 20 7 20 15 0 8 9 15 20 15 17 0 20 7 20 40 0 33 3 40
20 40 16 0 20 7 20 35 0 24 5 35 15 35 8 0 15 9 15 20 0 13 7 20 20 20 17 0
20 7 20 40 0 33 3 40 20 40 16 0 20 7 20 35 0 28 4 35 20 35 17 0 20 7 20 40
0 29 4 40 15 40 8 0 15 9 15 20 0 13 7 20 20 20 16 0 20 7 20 35 0 28 4 35 20
35 17 0 20 7 20 40 0 33 3 40 20 40 13 0 20 7 20 20 0 19 7 20 170 20 144 0
170 2 170 15 0 13 47 15 360 15 313 0 360 -2 360 -15 0 -8 7 -15 15 -15 11 0
15 -11 15 -40 0 -33 3 -40 20 -40 17 0 20 -7 20 -40 0 -33 3 -40 20 -40 16 0
20 -7 20 -35 0 -28 4 -35 20 -35 13 0 20 -7 20 -20 0 -13 7 -20 20 -20 16 0
20 -7 20 -35 0 -24 5 -35 15 -35 11 0 15 -11 15 -40 0 -33 3 -40 20 -40 13 0
20 -7 20 -20 0 -13 7 -20 20 -20 16 0 20 -7 20 -35 0 -28 4 -35 20 -35 13 0
20 -7 20 -20 0 -11 7 -20 15 -20 8 0 15 -9 15 -20 0 -20 7 -20 420 -20 413 0
420 0 420 20 0 11 7 20 15 20 8 0 15 9 15 20 0 13 7 20 20 20 11 0 20 7 20 15
0 8 9 15 20 15 17 0 20 7 20 40 0 33 3 40 20 40 17 0 20 7 20 40 0 29 4 40 15
40 10 0 15 11 15 35 0 28 4 35 20 35 13 0 20 7 20 20 0 13 7 20 20 20 16 0 20
7 20 35 0 28 4 35 20 35 17 0 20 7 20 40 0 33 3 40 20 40 13 0 20 7 20 20 0
11 7 20 15 20 10 0 15 11 15 35 0 28 4 35 20 35 17 0 20 7 20 40 0 33 3 40 20
40 13 0 20 7 20 20 0 13 -7 20 -20 20 -11 0 -20 7 -20 15 0 8 -9 15 -20 15
-17 0 -20 7 -20 40 0 29 -4 40 -15 40 -11 0 -15 11 -15 40 0 33 -3 40 -20 40
-16 0 -20 7 -20 35 0 28 -4 35 -20 35 -13 0 -20 7 -20 20 0 13 -7 20 -20 20
-16 0 -20 7 -20 35 0 28 -4 35 -20 35 -17 0 -20 7 -20 40 0 29 -4 40 -15 40
-8 0 -15 9 -15 20 0 13 -7 20 -20 20 -16 0 -20 7 -20 35 0 28 -4 35 -20 35
-17 0 -20 7 -20 40 0 33 -3 40 -20 40 -13 0 -20 7 -20 20 0 11 -7 20 -15 20
-8 0 -15 7 -15 15 0 13 -53 15 -420 15 -367 0 -420 -2 -420 -15 0 -8 -7 -15
-15 -15 -8 0 -15 -9 -15 -20 0 -13 -7 -20 -20 -20 -17 0 -20 -7 -20 -40 0 -33
-3 -40 -20 -40 -16 0 -20 -7 -20 -35 0 -28 -4 -35 -20 -35 -13 0 -20 -7 -20
-20 0 -11 -7 -20 -15 -20 -11 0 -15 -11 -15 -40 0 -33 -3 -40 -20 -40 -16 0
-20 -7 -20 -35 0 -28 -4 -35 -20 -35 -17 0 -20 -7 -20 -40 0 -33 -3 -40 -20
-40 -11 0 -20 -7 -20 -15 0 -8 -9 -15 -20 -15 -17 0 -20 -7 -20 -40 0 -29 -4
-40 -15 -40 -11 0 -15 -11 -15 -40 l0 -40 -250 0 c-216 0 -250 -2 -250 -15 0
-13 -42 -15 -320 -15 -278 0 -320 2 -320 15 0 8 -9 15 -20 15 -13 0 -20 7 -20
20 0 11 -7 20 -15 20 -8 0 -15 9 -15 20 0 13 -7 20 -20 20 -17 0 -20 7 -20 40
0 33 -3 40 -20 40 -16 0 -20 7 -20 35 0 28 -4 35 -20 35 -13 0 -20 7 -20 20 0
11 -7 20 -15 20 -10 0 -15 11 -15 35 0 28 -4 35 -20 35 -17 0 -20 7 -20 40 0
33 -3 40 -20 40 -17 0 -20 7 -20 40 0 33 -3 40 -20 40 -11 0 -20 7 -20 15 0 8
-9 15 -20 15 -17 0 -20 7 -20 40 0 29 -4 40 -15 40 -10 0 -15 11 -15 35 0 28
-4 35 -20 35 -17 0 -20 7 -20 40 0 33 -3 40 -20 40 -13 0 -20 7 -20 20 0 13
-7 20 -20 20 -16 0 -20 7 -20 35 0 24 -5 35 -15 35 -11 0 -15 11 -15 40 0 33
-3 40 -20 40 -17 0 -20 7 -20 40 0 33 -3 40 -20 40 -11 0 -20 7 -20 15 0 8 -9
15 -20 15 -17 0 -20 7 -20 40 0 33 -3 40 -20 40 -16 0 -20 7 -20 35 0 24 -5
35 -15 35 -12 0 -15 13 -15 60 0 47 3 60 15 60 8 0 15 9 15 20 0 13 7 20 20
20 11 0 20 7 20 15 0 11 11 15 40 15 33 0 40 3 40 20 0 13 7 20 20 20 13 0 20
7 20 20 0 16 7 20 35 20 28 0 35 4 35 20 0 13 7 20 20 20 11 0 20 7 20 15 0
10 11 15 35 15 28 0 35 4 35 20 0 13 7 20 20 20 13 0 20 7 20 20 0 17 7 20 40
20 33 0 40 3 40 20 0 13 7 20 20 20 13 0 20 7 20 20 0 16 7 20 35 20 24 0 35
5 35 15 0 8 9 15 20 15 13 0 20 7 20 20 0 16 7 20 35 20 28 0 35 4 35 20 0 13
7 20 20 20 13 0 20 7 20 20 0 17 7 20 40 20 29 0 40 4 40 15 0 8 9 15 20 15
13 0 20 7 20 20 0 16 7 20 35 20 28 0 35 4 35 20 0 13 7 20 20 20 13 0 20 7
20 20 0 16 7 20 35 20 28 0 35 4 35 20 0 13 7 20 20 20 11 0 20 7 20 15 0 11
11 15 40 15 33 0 40 3 40 20 0 13 7 20 20 20 13 0 20 -7 20 -20 0 -16 7 -20
35 -20 24 0 35 -5 35 -15 0 -11 11 -15 40 -15 33 0 40 -3 40 -20 0 -11 7 -20
15 -20 8 0 15 -9 15 -20 0 -17 7 -20 40 -20 33 0 40 -3 40 -20 0 -17 7 -20 40
-20 33 0 40 -3 40 -20 0 -16 7 -20 35 -20 24 0 35 -5 35 -15 0 -8 9 -15 20
-15 13 0 20 -7 20 -20 0 -16 7 -20 35 -20 28 0 35 -4 35 -20 0 -17 7 -20 40
-20 33 0 40 -3 40 -20 0 -13 7 -20 20 -20 11 0 20 -7 20 -15 0 -12 13 -15 55
-15 42 0 55 3 55 15 0 11 11 15 40 15 33 0 40 3 40 20 0 16 7 20 35 20 28 0
35 4 35 20 0 17 7 20 40 20 33 0 40 3 40 20 0 13 7 20 20 20 11 0 20 7 20 15
0 10 11 15 35 15 28 0 35 4 35 20 0 17 7 20 40 20 33 0 40 3 40 20 0 16 7 20
35 20 28 0 35 4 35 20 0 13 7 20 20 20 13 0 20 7 20 20 0 17 7 20 40 20 29 0
40 4 40 15 0 10 11 15 35 15 28 0 35 4 35 20 0 13 7 20 20 20 13 0 20 7 20 20
0 13 7 20 20 20 13 0 20 7 20 20 0 13 7 20 20 20 20 0 20 7 20 450 0 443 0
450 -20 450 -13 0 -20 7 -20 20 0 13 -7 20 -20 20 -13 0 -20 7 -20 20 0 17 -7
20 -40 20 -33 0 -40 3 -40 20 0 16 -7 20 -35 20 -28 0 -35 4 -35 20 0 13 -7
20 -20 20 -11 0 -20 7 -20 15 0 10 -11 15 -35 15 -28 0 -35 4 -35 20 0 17 -7
20 -40 20 -33 0 -40 3 -40 20 0 17 -7 20 -40 20 -33 0 -40 3 -40 20 0 11 -7
20 -15 20 -8 0 -15 7 -15 15 0 11 -11 15 -40 15 -33 0 -40 3 -40 20 0 16 -7
20 -35 20 -28 0 -35 4 -35 20 0 13 -7 20 -20 20 -13 0 -20 7 -20 20 0 17 -7
20 -40 20 -33 0 -40 3 -40 20 0 16 -7 20 -35 20 -28 0 -35 -4 -35 -20 0 -13
-7 -20 -20 -20 -13 0 -20 -7 -20 -20 0 -17 -7 -20 -40 -20 -33 0 -40 -3 -40
-20 0 -16 -7 -20 -35 -20 -28 0 -35 -4 -35 -20 0 -17 -7 -20 -40 -20 -29 0
-40 -4 -40 -15 0 -8 -9 -15 -20 -15 -13 0 -20 -7 -20 -20 0 -16 -7 -20 -35
-20 -28 0 -35 -4 -35 -20 0 -17 -7 -20 -40 -20 -33 0 -40 -3 -40 -20 0 -16 -7
-20 -35 -20 -24 0 -35 -5 -35 -15 0 -8 -9 -15 -20 -15 -13 0 -20 -7 -20 -20 0
-17 -7 -20 -40 -20 -33 0 -40 -3 -40 -20 0 -16 -7 -20 -35 -20 -28 0 -35 -4
-35 -20 0 -13 -7 -20 -20 -20 -13 0 -20 -7 -20 -20 0 -13 -7 -20 -20 -20 -20
0 -20 -7 -20 -450 l0 -450 -35 0 c-28 0 -35 -4 -35 -20 0 -13 -7 -20 -20 -20
-13 0 -20 -7 -20 -20 0 -17 -7 -20 -40 -20 -33 0 -40 -3 -40 -20 0 -11 -7 -20
-15 -20 -8 0 -15 -7 -15 -15 0 -11 -11 -15 -40 -15 -33 0 -40 -3 -40 -20 0
-13 -7 -20 -20 -20 -13 0 -20 -7 -20 -20 0 -13 -7 -20 -20 -20 -13 0 -20 -7
-20 -20 0 -16 -7 -20 -35 -20 -28 0 -35 -4 -35 -20 0 -13 -7 -20 -20 -20 -11
0 -20 -7 -20 -15 0 -10 -11 -15 -35 -15 -28 0 -35 -4 -35 -20 0 -13 -7 -20
-20 -20 -13 0 -20 -7 -20 -20 0 -17 -7 -20 -40 -20 -33 0 -40 -3 -40 -20 0
-13 -7 -20 -20 -20 -11 0 -20 -7 -20 -15 0 -10 -11 -15 -35 -15 -28 0 -35 -4
-35 -20 0 -13 -7 -20 -20 -20 -13 0 -20 -7 -20 -20 0 -16 -7 -20 -35 -20 -28
0 -35 -4 -35 -20 0 -13 -7 -20 -20 -20 -13 0 -20 -7 -20 -20 0 -17 -7 -20 -40
-20 -29 0 -40 -4 -40 -15 0 -8 -9 -15 -20 -15 -13 0 -20 -7 -20 -20 0 -16 -7
-20 -35 -20 -28 0 -35 -4 -35 -20 0 -13 -7 -20 -20 -20 -13 0 -20 -7 -20 -20
0 -13 -7 -20 -20 -20 -11 0 -20 -7 -20 -15 0 -13 -44 -15 -340 -15 -296 0
-340 2 -340 15 0 8 -9 15 -20 15 -20 0 -20 7 -20 400 l0 400 190 0 c162 0 190
2 190 15 0 8 9 15 20 15 13 0 20 7 20 20 0 13 7 20 20 20 17 0 20 7 20 40 0
33 3 40 20 40 13 0 20 7 20 20 0 11 7 20 15 20 10 0 15 11 15 35 0 28 4 35 20
35 17 0 20 7 20 40 0 33 3 40 20 40 16 0 20 7 20 35 0 28 4 35 20 35 13 0 20
7 20 20 0 11 7 20 15 20 11 0 15 11 15 40 0 33 3 40 20 40 16 0 20 7 20 35 0
28 4 35 20 35 13 0 20 7 20 20 0 13 7 20 20 20 19 0 20 7 20 95 0 88 -1 95
-20 95 -16 0 -20 7 -20 35 0 28 -4 35 -20 35 -13 0 -20 7 -20 20 0 13 -7 20
-20 20 -17 0 -20 7 -20 40 0 29 -4 40 -15 40 -10 0 -15 11 -15 35 0 28 -4 35
-20 35 -13 0 -20 7 -20 20 0 13 -7 20 -20 20 -17 0 -20 7 -20 40 0 33 -3 40
-20 40 -16 0 -20 7 -20 35 0 24 -5 35 -15 35 -11 0 -15 11 -15 40 0 33 -3 40
-20 40 -13 0 -20 7 -20 20 0 13 -7 20 -20 20 -16 0 -20 7 -20 35 l0 35 -455 0
-455 0 0 -35z m650 -55 c0 -11 7 -20 15 -20 8 0 15 9 15 20 0 17 7 20 40 20
33 0 40 -3 40 -20 0 -16 7 -20 35 -20 28 0 35 -4 35 -20 0 -13 7 -20 20 -20
13 0 20 -7 20 -20 0 -13 7 -20 20 -20 16 0 20 -7 20 -35 0 -28 4 -35 20 -35
17 0 20 -7 20 -40 0 -33 3 -40 20 -40 16 0 20 -7 20 -35 0 -24 5 -35 15 -35 8
0 15 -9 15 -20 0 -13 7 -20 20 -20 17 0 20 -7 20 -40 0 -33 3 -40 20 -40 16 0
20 -7 20 -35 0 -28 4 -35 20 -35 13 0 20 -7 20 -20 0 -11 7 -20 15 -20 12 0
15 -15 15 -75 0 -60 -3 -75 -15 -75 -11 0 -15 -11 -15 -40 0 -33 -3 -40 -20
-40 -16 0 -20 -7 -20 -35 0 -28 -4 -35 -20 -35 -13 0 -20 -7 -20 -20 0 -13 -7
-20 -20 -20 -17 0 -20 -7 -20 -40 0 -29 -4 -40 -15 -40 -10 0 -15 -11 -15 -35
0 -28 -4 -35 -20 -35 -17 0 -20 -7 -20 -40 0 -33 -3 -40 -20 -40 -13 0 -20 -7
-20 -20 0 -13 -7 -20 -20 -20 -16 0 -20 -7 -20 -35 0 -28 -4 -35 -20 -35 -13
0 -20 -7 -20 -20 0 -20 -7 -20 -375 -20 -368 0 -375 0 -375 20 0 13 -7 20 -20
20 -18 0 -20 7 -20 55 0 48 -2 55 -20 55 -13 0 -20 7 -20 20 0 11 -7 20 -15
20 -8 0 -15 9 -15 20 0 13 -7 20 -20 20 -16 0 -20 7 -20 35 0 28 -4 35 -20 35
-17 0 -20 7 -20 40 0 33 -3 40 -20 40 -16 0 -20 7 -20 35 0 28 -4 35 -20 35
-13 0 -20 7 -20 20 0 11 -7 20 -15 20 -11 0 -15 11 -15 40 0 33 -3 40 -20 40
-18 0 -20 7 -20 55 0 48 2 55 20 55 17 0 20 7 20 40 0 29 4 40 15 40 10 0 15
11 15 35 0 28 4 35 20 35 17 0 20 7 20 40 0 33 3 40 20 40 13 0 20 7 20 20 0
13 7 20 20 20 16 0 20 7 20 35 0 28 4 35 20 35 17 0 20 7 20 40 0 29 4 40 15
40 10 0 15 11 15 35 0 28 4 35 20 35 13 0 20 7 20 20 0 13 7 20 20 20 13 0 20
7 20 20 0 16 7 20 35 20 28 0 35 4 35 20 0 19 7 20 250 20 243 0 250 -1 250
-20z m-2880 -190 c0 -13 7 -20 20 -20 13 0 20 -7 20 -20 0 -17 7 -20 40 -20
33 0 40 -3 40 -20 0 -16 7 -20 35 -20 24 0 35 -5 35 -15 0 -11 11 -15 40 -15
33 0 40 -3 40 -20 0 -13 7 -20 20 -20 13 0 20 -7 20 -20 0 -16 7 -20 35 -20
28 0 35 -4 35 -20 0 -17 7 -20 40 -20 33 0 40 -3 40 -20 0 -16 7 -20 35 -20
24 0 35 -5 35 -15 0 -8 9 -15 20 -15 18 0 20 -7 20 -60 0 -53 2 -60 20 -60 20
0 20 -7 20 -340 0 -333 0 -340 -20 -340 -13 0 -20 -7 -20 -20 0 -13 -7 -20
-20 -20 -11 0 -20 -7 -20 -15 0 -8 -9 -15 -20 -15 -13 0 -20 -7 -20 -20 0 -16
-7 -20 -35 -20 -28 0 -35 -4 -35 -20 0 -17 -7 -20 -40 -20 -33 0 -40 -3 -40
-20 0 -16 -7 -20 -35 -20 -24 0 -35 -5 -35 -15 0 -11 -11 -15 -40 -15 -33 0
-40 -3 -40 -20 0 -13 -7 -20 -20 -20 -13 0 -20 -7 -20 -20 0 -16 -7 -20 -35
-20 -28 0 -35 -4 -35 -20 0 -17 -7 -20 -40 -20 -33 0 -40 -3 -40 -20 0 -16 -7
-20 -35 -20 -24 0 -35 -5 -35 -15 0 -8 -9 -15 -20 -15 -11 0 -20 7 -20 15 0
11 -11 15 -40 15 -33 0 -40 3 -40 20 0 16 -7 20 -35 20 -28 0 -35 4 -35 20 0
13 -7 20 -20 20 -13 0 -20 7 -20 20 0 17 -7 20 -40 20 -33 0 -40 3 -40 20 0
16 -7 20 -35 20 -24 0 -35 5 -35 15 0 11 -11 15 -40 15 -33 0 -40 3 -40 20 0
11 -7 20 -15 20 -8 0 -15 9 -15 20 0 17 -7 20 -40 20 -33 0 -40 3 -40 20 0 17
-7 20 -40 20 -29 0 -40 4 -40 15 0 8 -7 15 -15 15 -13 0 -15 53 -15 420 l0
420 35 0 c24 0 35 5 35 15 0 8 9 15 20 15 13 0 20 7 20 20 0 17 7 20 40 20 33
0 40 3 40 20 0 16 7 20 35 20 28 0 35 4 35 20 0 17 7 20 40 20 33 0 40 3 40
20 0 11 7 20 15 20 8 0 15 7 15 15 0 11 11 15 40 15 33 0 40 3 40 20 0 17 7
20 40 20 33 0 40 3 40 20 0 16 7 20 35 20 28 0 35 4 35 20 0 18 7 20 75 20 68
0 75 -2 75 -20z m5560 0 c0 -17 7 -20 40 -20 33 0 40 -3 40 -20 0 -16 7 -20
35 -20 28 0 35 -4 35 -20 0 -13 7 -20 20 -20 11 0 20 -7 20 -15 0 -8 9 -15 20
-15 13 0 20 -7 20 -20 0 -18 7 -20 55 -20 48 0 55 -2 55 -20 0 -13 7 -20 20
-20 13 0 20 -7 20 -20 0 -16 7 -20 35 -20 28 0 35 -4 35 -20 0 -17 7 -20 40
-20 29 0 40 -4 40 -15 0 -8 9 -15 20 -15 13 0 20 -7 20 -20 0 -11 7 -20 15
-20 13 0 15 -51 15 -400 0 -349 -2 -400 -15 -400 -8 0 -15 -7 -15 -15 0 -11
-11 -15 -40 -15 -33 0 -40 -3 -40 -20 0 -16 -7 -20 -35 -20 -28 0 -35 -4 -35
-20 0 -17 -7 -20 -40 -20 -33 0 -40 -3 -40 -20 0 -13 -7 -20 -20 -20 -11 0
-20 -7 -20 -15 0 -10 -11 -15 -35 -15 -28 0 -35 -4 -35 -20 0 -17 -7 -20 -40
-20 -33 0 -40 -3 -40 -20 0 -16 -7 -20 -35 -20 -28 0 -35 -4 -35 -20 0 -13 -7
-20 -20 -20 -13 0 -20 -7 -20 -20 0 -17 -7 -20 -40 -20 -29 0 -40 -4 -40 -15
0 -10 -11 -15 -35 -15 -24 0 -35 5 -35 15 0 11 -11 15 -40 15 -33 0 -40 3 -40
20 0 17 -7 20 -40 20 -33 0 -40 3 -40 20 0 11 -7 20 -15 20 -8 0 -15 9 -15 20
0 17 -7 20 -40 20 -33 0 -40 3 -40 20 0 16 -7 20 -35 20 -24 0 -35 5 -35 15 0
8 -9 15 -20 15 -13 0 -20 7 -20 20 0 17 -7 20 -40 20 -33 0 -40 3 -40 20 0 16
-7 20 -35 20 -28 0 -35 4 -35 20 0 13 -7 20 -20 20 -11 0 -20 7 -20 15 0 11
-11 15 -40 15 l-40 0 0 400 c0 393 0 400 20 400 13 0 20 7 20 20 0 13 7 20 20
20 11 0 20 7 20 15 0 10 11 15 35 15 28 0 35 4 35 20 0 13 7 20 20 20 13 0 20
7 20 20 0 17 7 20 40 20 33 0 40 3 40 20 0 16 7 20 35 20 28 0 35 4 35 20 0
17 7 20 40 20 29 0 40 4 40 15 0 10 11 15 35 15 28 0 35 4 35 20 0 13 7 20 20
20 13 0 20 7 20 20 0 17 7 20 40 20 33 0 40 3 40 20 0 18 7 20 75 20 68 0 75
-2 75 -20z m-2120 -2160 c0 -13 7 -20 20 -20 16 0 20 -7 20 -35 0 -28 4 -35
20 -35 17 0 20 -7 20 -40 0 -33 3 -40 20 -40 16 0 20 -7 20 -35 0 -24 5 -35
15 -35 11 0 15 -11 15 -40 0 -33 3 -40 20 -40 13 0 20 -7 20 -20 0 -13 7 -20
20 -20 16 0 20 -7 20 -35 0 -28 4 -35 20 -35 17 0 20 -7 20 -40 0 -33 3 -40
20 -40 13 0 20 -7 20 -20 0 -11 7 -20 15 -20 10 0 15 -11 15 -35 0 -28 4 -35
20 -35 17 0 20 -7 20 -40 0 -33 3 -40 20 -40 11 0 20 -7 20 -15 0 -8 9 -15 20
-15 17 0 20 -7 20 -40 0 -29 4 -40 15 -40 11 0 15 -11 15 -40 0 -33 3 -40 20
-40 16 0 20 -7 20 -35 0 -28 4 -35 20 -35 13 0 20 -7 20 -20 0 -13 7 -20 20
-20 16 0 20 -7 20 -35 0 -28 4 -35 20 -35 17 0 20 -7 20 -40 0 -29 4 -40 15
-40 11 0 15 -11 15 -40 0 -33 3 -40 20 -40 11 0 20 -7 20 -15 0 -8 9 -15 20
-15 17 0 20 -7 20 -40 0 -33 3 -40 20 -40 19 0 20 -7 20 -95 0 -88 -1 -95 -20
-95 -13 0 -20 -7 -20 -20 0 -13 -7 -20 -20 -20 -16 0 -20 -7 -20 -35 0 -28 -4
-35 -20 -35 -17 0 -20 -7 -20 -40 0 -29 -4 -40 -15 -40 -10 0 -15 -11 -15 -35
0 -28 -4 -35 -20 -35 -13 0 -20 -7 -20 -20 0 -13 -7 -20 -20 -20 -17 0 -20 -7
-20 -40 0 -33 -3 -40 -20 -40 -16 0 -20 -7 -20 -35 0 -28 -4 -35 -20 -35 -13
0 -20 -7 -20 -20 0 -11 -7 -20 -15 -20 -10 0 -15 -11 -15 -35 0 -28 -4 -35
-20 -35 -17 0 -20 -7 -20 -40 0 -33 -3 -40 -20 -40 -17 0 -20 -7 -20 -40 0
-33 -3 -40 -20 -40 -11 0 -20 -7 -20 -15 0 -8 -7 -15 -15 -15 -11 0 -15 -11
-15 -40 0 -33 -3 -40 -20 -40 -17 0 -20 -7 -20 -40 0 -33 -3 -40 -20 -40 -16
0 -20 -7 -20 -35 0 -28 -4 -35 -20 -35 -13 0 -20 -7 -20 -20 0 -13 -7 -20 -20
-20 -16 0 -20 -7 -20 -35 0 -24 -5 -35 -15 -35 -11 0 -15 -11 -15 -40 0 -33
-3 -40 -20 -40 -13 0 -20 -7 -20 -20 0 -13 -7 -20 -20 -20 -16 0 -20 -7 -20
-35 0 -28 -4 -35 -20 -35 -13 0 -20 -7 -20 -20 0 -13 -7 -20 -20 -20 -13 0
-20 -7 -20 -20 0 -20 -7 -20 -810 -20 -803 0 -810 0 -810 20 0 13 -7 20 -20
20 -13 0 -20 7 -20 20 0 13 -7 20 -20 20 -16 0 -20 7 -20 35 0 24 -5 35 -15
35 -11 0 -15 11 -15 40 0 33 -3 40 -20 40 -13 0 -20 7 -20 20 0 13 -7 20 -20
20 -16 0 -20 7 -20 35 0 28 -4 35 -20 35 -17 0 -20 7 -20 40 0 33 -3 40 -20
40 -16 0 -20 7 -20 35 0 24 -5 35 -15 35 -8 0 -15 9 -15 20 0 13 -7 20 -20 20
-17 0 -20 7 -20 40 0 33 -3 40 -20 40 -16 0 -20 7 -20 35 0 28 -4 35 -20 35
-17 0 -20 7 -20 40 0 29 -4 40 -15 40 -8 0 -15 9 -15 20 0 13 -7 20 -20 20
-16 0 -20 7 -20 35 0 28 -4 35 -20 35 -17 0 -20 7 -20 40 0 33 -3 40 -20 40
-11 0 -20 7 -20 15 0 8 -9 15 -20 15 -17 0 -20 7 -20 40 0 29 -4 40 -15 40
-11 0 -15 11 -15 40 0 33 -3 40 -20 40 -16 0 -20 7 -20 35 0 28 -4 35 -20 35
-13 0 -20 7 -20 20 0 13 -7 20 -20 20 -16 0 -20 7 -20 35 0 24 -5 35 -15 35
-11 0 -15 11 -15 40 0 33 -3 40 -20 40 -18 0 -20 7 -20 55 0 48 2 55 20 55 17
0 20 7 20 40 0 29 4 40 15 40 10 0 15 11 15 35 0 28 4 35 20 35 17 0 20 7 20
40 0 33 3 40 20 40 13 0 20 7 20 20 0 13 7 20 20 20 16 0 20 7 20 35 0 24 5
35 15 35 11 0 15 11 15 40 0 33 3 40 20 40 16 0 20 7 20 35 0 28 4 35 20 35
13 0 20 7 20 20 0 13 7 20 20 20 17 0 20 7 20 40 0 33 3 40 20 40 16 0 20 7
20 35 0 24 5 35 15 35 8 0 15 9 15 20 0 13 7 20 20 20 17 0 20 7 20 40 0 33 3
40 20 40 16 0 20 7 20 35 0 28 4 35 20 35 17 0 20 7 20 40 0 29 4 40 15 40 8
0 15 9 15 20 0 13 7 20 20 20 16 0 20 7 20 35 0 28 4 35 20 35 17 0 20 7 20
40 0 33 3 40 20 40 13 0 20 7 20 20 0 13 7 20 20 20 16 0 20 7 20 35 0 24 5
35 15 35 11 0 15 11 15 40 0 33 3 40 20 40 11 0 20 7 20 15 0 11 11 15 40 15
33 0 40 3 40 20 0 20 7 20 810 20 803 0 810 0 810 -20z m-4190 -600 c0 -16 7
-20 35 -20 28 0 35 -4 35 -20 0 -13 7 -20 20 -20 13 0 20 -7 20 -20 0 -17 7
-20 40 -20 29 0 40 -4 40 -15 0 -10 11 -15 35 -15 28 0 35 -4 35 -20 0 -17 7
-20 40 -20 33 0 40 -3 40 -20 0 -11 7 -20 15 -20 8 0 15 -9 15 -20 0 -17 7
-20 40 -20 33 0 40 -3 40 -20 0 -17 7 -20 40 -20 29 0 40 -4 40 -15 0 -8 7
-15 15 -15 8 0 15 -9 15 -20 0 -13 7 -20 20 -20 20 0 20 -7 20 -380 l0 -380
-35 0 c-24 0 -35 -5 -35 -15 0 -8 -9 -15 -20 -15 -13 0 -20 -7 -20 -20 0 -17
-7 -20 -40 -20 -33 0 -40 -3 -40 -20 0 -16 -7 -20 -35 -20 -28 0 -35 -4 -35
-20 0 -17 -7 -20 -40 -20 -33 0 -40 -3 -40 -20 0 -13 -7 -20 -20 -20 -11 0
-20 -7 -20 -15 0 -10 -11 -15 -35 -15 -28 0 -35 -4 -35 -20 0 -17 -7 -20 -40
-20 -33 0 -40 -3 -40 -20 0 -16 -7 -20 -35 -20 -28 0 -35 -4 -35 -20 0 -17 -7
-20 -40 -20 -33 0 -40 3 -40 20 0 16 -7 20 -35 20 -28 0 -35 4 -35 20 0 17 -7
20 -40 20 -33 0 -40 3 -40 20 0 13 -7 20 -20 20 -11 0 -20 7 -20 15 0 10 -11
15 -35 15 -28 0 -35 4 -35 20 0 17 -7 20 -40 20 -33 0 -40 3 -40 20 0 13 -7
20 -20 20 -13 0 -20 7 -20 20 0 16 -7 20 -35 20 -28 0 -35 4 -35 20 0 17 -7
20 -40 20 -29 0 -40 4 -40 15 0 8 -9 15 -20 15 -13 0 -20 7 -20 20 0 11 -7 20
-15 20 -13 0 -15 41 -15 305 0 264 2 305 15 305 12 0 15 15 15 75 0 68 2 75
20 75 11 0 20 7 20 15 0 11 11 15 40 15 33 0 40 3 40 20 0 16 7 20 35 20 28 0
35 4 35 20 0 17 7 20 40 20 33 0 40 3 40 20 0 16 7 20 35 20 28 0 35 4 35 20
0 13 7 20 20 20 11 0 20 7 20 15 0 11 11 15 40 15 33 0 40 3 40 20 0 16 7 20
35 20 28 0 35 4 35 20 0 17 7 20 40 20 33 0 40 3 40 20 0 13 7 20 20 20 13 0
20 -7 20 -20z m7370 -80 c0 -13 7 -20 20 -20 16 0 20 -7 20 -35 0 -24 5 -35
15 -35 8 0 15 -9 15 -20 0 -13 7 -20 20 -20 17 0 20 -7 20 -40 0 -33 3 -40 20
-40 16 0 20 -7 20 -35 0 -28 4 -35 20 -35 17 0 20 -7 20 -40 0 -29 4 -40 15
-40 8 0 15 -7 15 -15 0 -8 9 -15 20 -15 17 0 20 -7 20 -40 0 -33 3 -40 20 -40
17 0 20 -7 20 -40 0 -33 3 -40 20 -40 18 0 20 -7 20 -75 0 -68 -2 -75 -20 -75
-16 0 -20 -7 -20 -35 0 -28 -4 -35 -20 -35 -13 0 -20 -7 -20 -20 0 -13 -7 -20
-20 -20 -17 0 -20 -7 -20 -40 0 -29 -4 -40 -15 -40 -10 0 -15 -11 -15 -35 0
-28 -4 -35 -20 -35 -13 0 -20 -7 -20 -20 0 -13 -7 -20 -20 -20 -16 0 -20 -7
-20 -35 0 -28 -4 -35 -20 -35 -17 0 -20 -7 -20 -40 0 -29 -4 -40 -15 -40 -8 0
-15 -9 -15 -20 0 -13 -7 -20 -20 -20 -13 0 -20 -7 -20 -20 0 -13 -7 -20 -20
-20 -11 0 -20 -7 -20 -15 0 -13 -44 -15 -340 -15 -296 0 -340 2 -340 15 0 8
-9 15 -20 15 -13 0 -20 7 -20 20 0 13 -7 20 -20 20 -13 0 -20 7 -20 20 0 11
-7 20 -15 20 -11 0 -15 11 -15 40 0 33 -3 40 -20 40 -16 0 -20 7 -20 35 0 28
-4 35 -20 35 -17 0 -20 7 -20 40 0 33 -3 40 -20 40 -11 0 -20 7 -20 15 0 8 -7
15 -15 15 -11 0 -15 11 -15 40 0 33 -3 40 -20 40 -17 0 -20 7 -20 40 0 33 -3
40 -20 40 -11 0 -20 7 -20 15 0 8 -9 15 -20 15 -18 0 -20 7 -20 75 0 68 2 75
20 75 17 0 20 7 20 40 0 33 3 40 20 40 13 0 20 7 20 20 0 13 7 20 20 20 16 0
20 7 20 35 0 24 5 35 15 35 11 0 15 11 15 40 0 33 3 40 20 40 16 0 20 7 20 35
0 28 4 35 20 35 13 0 20 7 20 20 0 13 7 20 20 20 17 0 20 7 20 40 0 29 4 40
15 40 10 0 15 11 15 35 0 28 4 35 20 35 13 0 20 7 20 20 0 20 7 20 380 20 373
0 380 0 380 -20z m-1250 -2640 c0 -17 7 -20 40 -20 33 0 40 -3 40 -20 0 -16 7
-20 35 -20 28 0 35 -4 35 -20 0 -17 7 -20 40 -20 33 0 40 -3 40 -20 0 -13 7
-20 20 -20 11 0 20 -7 20 -15 0 -10 11 -15 35 -15 28 0 35 -4 35 -20 0 -17 7
-20 40 -20 33 0 40 -3 40 -20 0 -16 7 -20 35 -20 28 0 35 -4 35 -20 0 -13 7
-20 20 -20 11 0 20 -7 20 -15 0 -11 11 -15 40 -15 33 0 40 -3 40 -20 0 -11 7
-20 15 -20 13 0 15 -53 15 -415 l0 -415 -35 0 c-28 0 -35 -4 -35 -20 0 -17 -7
-20 -40 -20 -33 0 -40 -3 -40 -20 0 -13 -7 -20 -20 -20 -13 0 -20 -7 -20 -20
0 -16 -7 -20 -35 -20 -28 0 -35 -4 -35 -20 0 -17 -7 -20 -40 -20 -29 0 -40 -4
-40 -15 0 -8 -7 -15 -15 -15 -8 0 -15 -9 -15 -20 0 -17 -7 -20 -40 -20 -33 0
-40 -3 -40 -20 0 -17 -7 -20 -40 -20 -33 0 -40 -3 -40 -20 0 -11 -7 -20 -15
-20 -8 0 -15 -7 -15 -15 0 -12 -16 -15 -80 -15 -64 0 -80 3 -80 15 0 10 -11
15 -35 15 -28 0 -35 4 -35 20 0 17 -7 20 -40 20 -33 0 -40 3 -40 20 0 16 -7
20 -35 20 -28 0 -35 4 -35 20 0 13 -7 20 -20 20 -11 0 -20 7 -20 15 0 11 -11
15 -40 15 -33 0 -40 3 -40 20 0 16 -7 20 -35 20 -28 0 -35 4 -35 20 0 17 -7
20 -40 20 -33 0 -40 3 -40 20 0 11 -7 20 -15 20 -8 0 -15 9 -15 20 0 17 -7 20
-40 20 l-40 0 0 110 c0 103 -1 110 -20 110 -20 0 -20 7 -20 285 0 278 0 285
20 285 13 0 20 7 20 20 0 13 7 20 20 20 13 0 20 7 20 20 0 16 7 20 35 20 24 0
35 5 35 15 0 8 9 15 20 15 13 0 20 7 20 20 0 17 7 20 40 20 33 0 40 3 40 20 0
16 7 20 35 20 28 0 35 4 35 20 0 13 7 20 20 20 11 0 20 7 20 15 0 11 11 15 40
15 33 0 40 3 40 20 0 16 7 20 35 20 28 0 35 4 35 20 0 13 7 20 20 20 13 0 20
7 20 20 0 16 7 20 35 20 28 0 35 4 35 20 0 17 7 20 40 20 33 0 40 -3 40 -20z
m-5480 -190 c0 -17 7 -20 40 -20 33 0 40 -3 40 -20 0 -11 7 -20 15 -20 8 0 15
-9 15 -20 0 -17 7 -20 40 -20 29 0 40 -4 40 -15 0 -10 11 -15 35 -15 28 0 35
-4 35 -20 0 -17 7 -20 40 -20 33 0 40 -3 40 -20 0 -13 7 -20 20 -20 13 0 20
-7 20 -20 0 -16 7 -20 35 -20 28 0 35 -4 35 -20 0 -17 7 -20 40 -20 29 0 40
-4 40 -15 0 -10 11 -15 35 -15 34 0 35 -1 35 -40 0 -33 3 -40 20 -40 20 0 20
-7 20 -360 0 -353 0 -360 -20 -360 -13 0 -20 -7 -20 -20 0 -11 -7 -20 -15 -20
-8 0 -15 -7 -15 -15 0 -8 -9 -15 -20 -15 -13 0 -20 -7 -20 -20 0 -17 -7 -20
-40 -20 -33 0 -40 -3 -40 -20 0 -16 -7 -20 -35 -20 -28 0 -35 -4 -35 -20 0
-13 -7 -20 -20 -20 -11 0 -20 -7 -20 -15 0 -11 -11 -15 -40 -15 -33 0 -40 -3
-40 -20 0 -16 -7 -20 -35 -20 -28 0 -35 -4 -35 -20 0 -13 -7 -20 -20 -20 -13
0 -20 -7 -20 -20 0 -16 -7 -20 -35 -20 -28 0 -35 -4 -35 -20 0 -17 -7 -20 -40
-20 -29 0 -40 -4 -40 -15 0 -12 -13 -15 -55 -15 -42 0 -55 3 -55 15 0 11 -11
15 -40 15 -33 0 -40 3 -40 20 0 13 -7 20 -20 20 -13 0 -20 7 -20 20 0 16 -7
20 -35 20 -28 0 -35 4 -35 20 0 17 -7 20 -40 20 -33 0 -40 3 -40 20 0 16 -7
20 -35 20 -24 0 -35 5 -35 15 0 8 -9 15 -20 15 -13 0 -20 7 -20 20 0 17 -7 20
-40 20 -33 0 -40 3 -40 20 0 16 -7 20 -35 20 -28 0 -35 4 -35 20 0 13 -7 20
-20 20 -11 0 -20 7 -20 15 0 8 -9 15 -20 15 -20 0 -20 7 -20 345 0 338 0 345
-20 345 -11 0 -20 7 -20 15 0 8 9 15 20 15 17 0 20 7 20 40 0 33 3 40 20 40
13 0 20 7 20 20 0 16 7 20 35 20 24 0 35 5 35 15 0 8 9 15 20 15 13 0 20 7 20
20 0 17 7 20 40 20 33 0 40 3 40 20 0 16 7 20 35 20 28 0 35 4 35 20 0 13 7
20 20 20 13 0 20 7 20 20 0 17 7 20 40 20 29 0 40 4 40 15 0 10 11 15 35 15
28 0 35 4 35 20 0 13 7 20 20 20 13 0 20 7 20 20 0 17 7 20 40 20 33 0 40 3
40 20 0 18 7 20 55 20 48 0 55 -2 55 -20z m3100 -380 c0 -13 7 -20 20 -20 13
0 20 -7 20 -20 0 -11 7 -20 15 -20 10 0 15 -11 15 -35 0 -28 4 -35 20 -35 13
0 20 -7 20 -20 0 -13 7 -20 20 -20 17 0 20 -7 20 -40 0 -33 3 -40 20 -40 16 0
20 -7 20 -35 0 -28 4 -35 20 -35 13 0 20 -7 20 -20 0 -11 7 -20 15 -20 11 0
15 -11 15 -40 0 -33 3 -40 20 -40 11 0 20 -7 20 -15 0 -8 9 -15 20 -15 17 0
20 -7 20 -40 0 -33 3 -40 20 -40 18 0 20 -7 20 -55 0 -48 -2 -55 -20 -55 -17
0 -20 -7 -20 -40 0 -33 -3 -40 -20 -40 -16 0 -20 -7 -20 -35 0 -28 -4 -35 -20
-35 -13 0 -20 -7 -20 -20 0 -11 -7 -20 -15 -20 -11 0 -15 -11 -15 -40 0 -33
-3 -40 -20 -40 -16 0 -20 -7 -20 -35 0 -28 -4 -35 -20 -35 -17 0 -20 -7 -20
-40 0 -33 -3 -40 -20 -40 -16 0 -20 -7 -20 -35 0 -28 -4 -35 -20 -35 -17 0
-20 -7 -20 -40 0 -39 -1 -40 -35 -40 -28 0 -35 -4 -35 -20 0 -20 -7 -20 -360
-20 -353 0 -360 0 -360 20 0 13 -7 20 -20 20 -17 0 -20 7 -20 40 0 29 -4 40
-15 40 -10 0 -15 11 -15 35 0 28 -4 35 -20 35 -13 0 -20 7 -20 20 0 13 -7 20
-20 20 -17 0 -20 7 -20 40 0 33 -3 40 -20 40 -11 0 -20 7 -20 15 0 8 -9 15
-20 15 -17 0 -20 7 -20 40 0 29 -4 40 -15 40 -10 0 -15 11 -15 35 0 28 -4 35
-20 35 -13 0 -20 7 -20 20 0 13 -7 20 -20 20 -19 0 -20 7 -20 95 0 88 1 95 20
95 17 0 20 7 20 40 0 33 3 40 20 40 16 0 20 7 20 35 0 24 5 35 15 35 8 0 15 9
15 20 0 13 7 20 20 20 17 0 20 7 20 40 0 33 3 40 20 40 16 0 20 7 20 35 0 28
4 35 20 35 17 0 20 7 20 40 0 33 3 40 20 40 16 0 20 7 20 35 0 24 5 35 15 35
8 0 15 9 15 20 0 13 7 20 20 20 13 0 20 7 20 20 0 20 7 20 360 20 353 0 360 0
360 -20z"/>
</g>
</svg>
