<svg height='100px' width='100px'  fill="#d4ff1c" xmlns="http://www.w3.org/2000/svg" data-name="Layer 1" viewBox="0 0 64 64" x="0px" y="0px"><title>Brain-brains- head- understanding- pate</title><path d="M15.144,24.288a8.348,8.348,0,0,0,0,14.424A6.535,6.535,0,0,0,15,40.071a6.614,6.614,0,0,0,5.393,6.641A6.478,6.478,0,0,0,26.667,52.5,6.252,6.252,0,0,0,32,49.392,6.252,6.252,0,0,0,37.333,52.5a6.478,6.478,0,0,0,6.274-5.788A6.614,6.614,0,0,0,49,40.071a6.535,6.535,0,0,0-.144-1.359,8.348,8.348,0,0,0,0-14.424A6.535,6.535,0,0,0,49,22.929a6.614,6.614,0,0,0-5.393-6.641A6.478,6.478,0,0,0,37.333,10.5,6.252,6.252,0,0,0,32,13.608,6.252,6.252,0,0,0,26.667,10.5a6.478,6.478,0,0,0-6.274,5.788A6.614,6.614,0,0,0,15,22.929,6.535,6.535,0,0,0,15.144,24.288ZM20.532,18.3a4.8,4.8,0,0,0,3.08,1.2,4.371,4.371,0,0,0,.471-.025,5.321,5.321,0,0,0,3.736-2.4l-1.638-1.146a3.373,3.373,0,0,1-2.313,1.559,2.529,2.529,0,0,1-1.528-.345A4.531,4.531,0,0,1,26.667,12.5,4.54,4.54,0,0,1,31,17.214v2.857h2V17.214A4.54,4.54,0,0,1,37.333,12.5a4.531,4.531,0,0,1,4.327,4.64,2.553,2.553,0,0,1-1.528.346,3.373,3.373,0,0,1-2.313-1.559l-1.638,1.146a5.321,5.321,0,0,0,3.736,2.4,4.358,4.358,0,0,0,.471.025,4.8,4.8,0,0,0,3.08-1.2A4.628,4.628,0,0,1,47,22.929a5,5,0,0,1-.264,1.545c-.8,1.322-1.7,2.056-2.609,2.026-1.121-.036-2.291-1.274-3.209-3.4l-1.836.794c1.256,2.906,3.025,4.54,4.982,4.6h.115a4.887,4.887,0,0,0,3.848-2.374,6.343,6.343,0,0,1,0,10.749A4.861,4.861,0,0,0,44.064,34.5c-1.957.062-3.726,1.7-4.982,4.6l1.836.794c.918-2.123,2.088-3.361,3.209-3.4h.048c.857,0,1.768.731,2.563,2.033A4.973,4.973,0,0,1,47,40.071,4.629,4.629,0,0,1,43.481,44.7a4.709,4.709,0,0,0-3.564-1.171,5.321,5.321,0,0,0-3.736,2.4l1.638,1.146a3.373,3.373,0,0,1,2.313-1.559,2.546,2.546,0,0,1,1.528.345A4.531,4.531,0,0,1,37.333,50.5,4.54,4.54,0,0,1,33,45.786V42.929H31v2.857A4.54,4.54,0,0,1,26.667,50.5a4.531,4.531,0,0,1-4.327-4.641,2.517,2.517,0,0,1,1.528-.345,3.373,3.373,0,0,1,2.313,1.559l1.638-1.146a5.321,5.321,0,0,0-3.736-2.4A4.719,4.719,0,0,0,20.519,44.7,4.629,4.629,0,0,1,17,40.071a5.014,5.014,0,0,1,.262-1.539C18.07,37.208,19,36.479,19.873,36.5c1.121.036,2.291,1.274,3.209,3.4l1.836-.794c-1.256-2.906-3.025-4.54-4.982-4.6a4.833,4.833,0,0,0-3.962,2.373,6.343,6.343,0,0,1,0-10.748A4.887,4.887,0,0,0,19.821,28.5h.115c1.957-.062,3.726-1.7,4.982-4.6L23.082,23.1c-.918,2.123-2.088,3.361-3.209,3.4h-.048c-.857,0-1.768-.731-2.563-2.033A4.973,4.973,0,0,1,17,22.929,4.628,4.628,0,0,1,20.532,18.3Z"></path><rect x="31" y="2.5" width="2" height="6"></rect><rect x="31" y="54.5" width="2" height="6"></rect><rect x="55" y="30.5" width="6" height="2"></rect><rect x="3" y="30.5" width="6" height="2"></rect><rect x="47.385" y="12.115" width="5.999" height="2" transform="translate(5.483 39.469) rotate(-45)"></rect><rect x="10.616" y="48.885" width="5.999" height="2" transform="translate(-31.286 24.238) rotate(-45)"></rect><rect x="49.385" y="46.885" width="2" height="5.999" transform="translate(-20.516 50.238) rotate(-45)"></rect><rect x="12.615" y="10.116" width="2" height="5.999" transform="translate(-5.286 13.469) rotate(-45)"></rect></svg>