<svg height='100px' width='100px'  fill="#d4ff1c" xmlns="http://www.w3.org/2000/svg" xmlns:xlink="http://www.w3.org/1999/xlink" version="1.1" x="0px" y="0px" viewBox="0 0 512 512" style="enable-background:new 0 0 512 512;" xml:space="preserve"><title>Artifical Intelligence</title><g><path d="M154.9,187.1L154.9,187.1c8.9-3.6,18.3-5.5,27.9-5.5c3.3,0,6-2.7,6-6c0-3.3-2.7-6-6-6c-47.7,0.5-85.9,39.6-85.4,87.2   c0.5,46.9,38.4,84.9,85.4,85.4c3.3,0,6-2.7,6-6s-2.7-6-6-6c-41,0-74.3-33.3-74.3-74.3C108.5,225.7,126.8,198.5,154.9,187.1z"></path><path d="M182.7,88.5L156.5,89c-2.5,0-4.8,1.7-5.6,4.1l-7.3,21.6c-12.9,3.7-25.3,9.1-36.9,16.1l-21-9.4c-2.3-1-5-0.5-6.7,1.3   l-33,33.8c-1.8,1.8-2.2,4.6-1.1,6.8l10.2,20.7c-6.8,11.7-11.7,24.3-14.8,37.4l-21.5,8c-2.4,0.9-4,3.2-3.9,5.7l0.8,47.2   c0,2.5,1.7,4.8,4.1,5.6l21.6,7.3c3.7,12.9,9.1,25.3,16.1,36.9l-9.4,21c-1,2.3-0.5,5,1.3,6.7l33.8,33c1.8,1.8,4.6,2.2,6.8,1.1   l20.7-10.2c11.7,6.8,24.3,11.7,37.4,14.8l8,21.5c0.9,2.3,3.1,3.9,5.6,3.9h0.1l21-0.4c3.3-0.1,6-2.8,5.9-6.1c-0.1-3.3-2.8-6-6.1-5.9   l-16.8,0.3l-7.7-20.6c-0.7-1.9-2.4-3.4-4.4-3.8c-14-2.9-27.5-8.2-39.7-15.7c-1.8-1.1-3.9-1.2-5.8-0.3l-19.8,9.8l-27.7-27.1l9-20.1   c0.8-1.8,0.7-4-0.4-5.7c-7.7-12.2-13.5-25.4-17.2-39.4c-0.5-2-2-3.5-3.9-4.2l-20.6-7L27,239.1l20.6-7.7c1.9-0.7,3.4-2.4,3.8-4.4   c2.9-14.1,8.2-27.5,15.7-39.7c1.1-1.8,1.2-3.9,0.3-5.8l-9.8-19.8L84.7,134l20.1,9c1.8,0.8,4,0.7,5.7-0.4   c12.2-7.7,25.4-13.5,39.4-17.2c2-0.5,3.5-2,4.2-3.9l7-20.6l21.9-0.4c3.3-0.1,6-2.8,5.9-6.1C188.7,91.1,186,88.5,182.7,88.5z"></path><path d="M496.5,250c-3.3-17.2-19.9-28.4-37.1-25.1c-12.7,2.5-22.7,12.4-25.1,25.1H194.8v12h239.4c3.3,17.2,19.9,28.4,37.1,25.1   S499.8,267.1,496.5,250z M479.2,269.9c-7.7,7.7-20.1,7.7-27.8,0c0,0,0,0,0,0c-7.7-7.7-7.7-20.1,0-27.8c7.7-7.7,20.1-7.7,27.8,0   C486.9,249.7,486.9,262.2,479.2,269.9z"></path><polygon points="383.3,139.1 383.3,139.1 383.3,139.1  "></polygon><path d="M281.5,196.9c0-11.1,9-20.1,20.1-20.1h50.6c3.3,17.2,19.9,28.4,37.1,25.1c17.2-3.3,28.4-19.9,25.1-37.1   c-2.9-14.9-15.9-25.7-31.1-25.7c-15.2,0-28.2,10.8-31.1,25.7h-50.6c-17.7,0-32.1,14.4-32.1,32.1c0,11.1-9,20.1-20.1,20.1h-54.5v12   h54.5C267.1,229,281.5,214.6,281.5,196.9z M369.4,156.9c7.7-7.7,20.1-7.7,27.8,0c7.7,7.7,7.7,20.1,0,27.8h0   c-7.7,7.7-20.1,7.7-27.8,0S361.7,164.5,369.4,156.9z"></path><path d="M383.3,309.5c-15.2,0-28.2,10.8-31.1,25.6h-50.6c-11.1,0-20.1-9-20.1-20.1c0-17.7-14.4-32.1-32.1-32.1h-54.5v12h54.5   c11.1,0,20.1,9,20.1,20.1c0,17.7,14.4,32.1,32.1,32.1h50.6c2.9,14.9,15.9,25.7,31.1,25.7h0c17.5,0,31.6-14.2,31.6-31.7   C414.9,323.7,400.7,309.5,383.3,309.5z M397.2,355.1c-7.7,7.7-20.1,7.7-27.8,0c-7.7-7.6-7.7-20-0.1-27.7c0,0,0.1-0.1,0.1-0.1h0   c7.7-7.7,20.1-7.7,27.8,0C404.8,334.9,404.8,347.4,397.2,355.1z"></path><path d="M319.5,379.5c-5.1,1.5-9.7,4.2-13.5,8h0c-5.2,5.2-8.4,12-9.1,19.3h-6.8c-11.2,0-21.3-7-25.2-17.6l-17-45.9   c-5.7-15.2-20.2-25.3-36.5-25.4h-16.6v12h16.6c11.2,0,21.3,7,25.2,17.6l17,45.9c5.7,15.2,20.2,25.3,36.5,25.4h7.9   c4.9,16.8,22.5,26.4,39.3,21.4c16.8-4.9,26.4-22.5,21.4-39.3C353.9,384.1,336.3,374.5,319.5,379.5z M328.4,429.5   c-10.8,0-19.6-8.8-19.6-19.6c0-10.8,8.8-19.6,19.6-19.6c5.2,0,10.2,2.1,13.9,5.7c3.7,3.7,5.8,8.7,5.8,13.9   C348.1,420.7,339.3,429.5,328.4,429.5z"></path><path d="M247.9,168.6l17-45.9c3.9-10.5,14-17.5,25.2-17.6h6.8c1.7,17.4,17.1,30,34.5,28.3c17.4-1.7,30-17.1,28.3-34.5   c-1.7-17.4-17.1-30-34.5-28.3c-12.8,1.3-23.6,10.2-27.2,22.5h-7.9c-16.3,0-30.8,10.2-36.5,25.4l-17,45.9   c-3.9,10.5-14,17.5-25.2,17.6h-16.6v12h16.6C227.7,193.9,242.2,183.8,247.9,168.6z M314.5,88.2L314.5,88.2c7.7-7.7,20.1-7.7,27.8,0   s7.7,20.1,0,27.8c-7.7,7.7-20.1,7.7-27.8,0c-3.7-3.7-5.8-8.7-5.8-13.9C308.8,96.9,310.8,91.9,314.5,88.2z"></path></g></svg>