<svg height='100px' width='100px'  fill="#d4ff1c" xmlns="http://www.w3.org/2000/svg" xmlns:xlink="http://www.w3.org/1999/xlink" version="1.1" x="0px" y="0px" viewBox="0 0 64 64" style="enable-background:new 0 0 64 64;" xml:space="preserve"><path d="M46.2,24.9c0-0.1-0.1-0.2-0.2-0.2c0,0,0,0,0,0c-0.1-0.1-0.2-0.1-0.2-0.2l-13.3-6.7c-0.3-0.1-0.6-0.1-0.9,0l-13.3,6.7  c-0.1,0-0.2,0.1-0.2,0.2c0,0,0,0,0,0c-0.1,0.1-0.1,0.1-0.2,0.2c0,0,0,0.1,0,0.1c0,0.1-0.1,0.2-0.1,0.3v14.5c0,0.4,0.2,0.8,0.6,0.9  l13.3,5.5c0,0,0,0,0,0l0,0c0.1,0.1,0.3,0.1,0.4,0.1c0.2,0,0.3,0,0.4-0.1c0,0,0,0,0,0l13.3-6.7c0.3-0.2,0.6-0.5,0.6-0.9V25.3  C46.3,25.2,46.3,25.1,46.2,24.9C46.3,25,46.2,24.9,46.2,24.9z M32,19.8l11.1,5.5L32,30.9l-11.1-5.5L32,19.8z M23.7,29l3.3,1.7v3.1  L23.7,32V29z M19.7,27l2,1v4.7c0,0.4,0.2,0.7,0.6,0.9l5.3,2.7c0.1,0.1,0.3,0.1,0.4,0.1c0.2,0,0.4-0.1,0.5-0.1  c0.3-0.2,0.5-0.5,0.5-0.9v-3.7l2,1v11.2l-11.3-4.7V27z M33,43.7V32.6L44.3,27V38L33,43.7z"></path><path d="M10.2,29c0.1,0,0.1,0,0.2,0c0.5,0,0.9-0.3,1-0.8c1.7-9.1,9.1-15.9,18.1-17l-0.1,0.1c-0.4,0.4-0.4,1,0,1.4  c0.2,0.2,0.5,0.3,0.7,0.3s0.5-0.1,0.7-0.3l2-2c0.1-0.1,0.2-0.2,0.2-0.3c0.1-0.2,0.1-0.5,0-0.8c-0.1-0.1-0.1-0.2-0.2-0.3l-2-2  c-0.4-0.4-1-0.4-1.4,0s-0.4,1,0,1.4l0.4,0.4c-10.1,1-18.5,8.6-20.3,18.7C9.3,28.4,9.6,28.9,10.2,29z"></path><path d="M54.6,36.2c0.1-0.5-0.3-1.1-0.8-1.2c-0.5-0.1-1.1,0.3-1.2,0.8c-1.7,9.1-9.1,15.9-18.1,17l0.1-0.1c0.4-0.4,0.4-1,0-1.4  s-1-0.4-1.4,0l-2,2c-0.1,0.1-0.2,0.2-0.2,0.3c-0.1,0.2-0.1,0.5,0,0.8c0.1,0.1,0.1,0.2,0.2,0.3l2,2c0.2,0.2,0.5,0.3,0.7,0.3  s0.5-0.1,0.7-0.3c0.4-0.4,0.4-1,0-1.4l-0.4-0.4C44.4,53.9,52.8,46.3,54.6,36.2z"></path><path d="M55.3,29.3l-0.4,0.4c-1-10.1-8.5-18.4-18.6-20.3c-0.5-0.1-1.1,0.3-1.2,0.8s0.3,1.1,0.8,1.2c9.1,1.7,15.8,9.1,16.9,18  l-0.1-0.1c-0.4-0.4-1-0.4-1.4,0s-0.4,1,0,1.4l2,2c0.1,0.1,0.2,0.2,0.3,0.2C53.7,33,53.9,33,54,33s0.3,0,0.4-0.1  c0.1-0.1,0.2-0.1,0.3-0.2l2-2c0.4-0.4,0.4-1,0-1.4S55.7,28.9,55.3,29.3z"></path><path d="M8.7,34.7l0.4-0.4c1,10.1,8.6,18.5,18.7,20.3c0.1,0,0.1,0,0.2,0c0.5,0,0.9-0.3,1-0.8c0.1-0.5-0.3-1.1-0.8-1.2  c-9.1-1.7-15.9-9.1-17-18.1l0.1,0.1c0.2,0.2,0.5,0.3,0.7,0.3s0.5-0.1,0.7-0.3c0.4-0.4,0.4-1,0-1.4l-2-2c-0.1-0.1-0.2-0.2-0.3-0.2  c-0.2-0.1-0.5-0.1-0.8,0c-0.1,0.1-0.2,0.1-0.3,0.2l-2,2c-0.4,0.4-0.4,1,0,1.4S8.3,35.1,8.7,34.7z"></path></svg>